<svg width="160" height="160" viewBox="0 0 160 160" fill="none" xmlns="http://www.w3.org/2000/svg">
  <!-- Background -->
  <rect width="160" height="160" rx="28" fill="url(#bgGradient)"></rect>

  <!-- Main Site Circle -->
  <circle cx="82" cy="80" r="34" fill="#FFFFFF"></circle>

  <!-- Connected Nodes -->
  <circle cx="36" cy="60" r="12" fill="#99F6E4"></circle>
  <circle cx="36" cy="100" r="12" fill="#99F6E4"></circle>
  <circle cx="124" cy="80" r="12" fill="#99F6E4"></circle>

  <!-- Connection Lines -->
  <line x1="48" y1="60" x2="64" y2="72" stroke="#5EEAD4" stroke-width="4"></line>
  <line x1="48" y1="100" x2="64" y2="88" stroke="#5EEAD4" stroke-width="4"></line>
  <line x1="98" y1="80" x2="112" y2="80" stroke="#5EEAD4" stroke-width="4"></line>

  <!-- S Letter -->
  <path d="M74 68C74 63 78 60 84 60C90 60 94 63 94 67
       M74 92C74 97 78 100 84 100C90 100 94 97 94 93" stroke="#0F766E" stroke-width="6" stroke-linecap="round"></path>

  <!-- Gradient -->
  <defs>
    <linearGradient id="bgGradient" x1="0" y1="0" x2="160" y2="160">
      <stop stop-color="#0D9488"></stop>
      <stop offset="1" stop-color="#115E59"></stop>
    </linearGradient>
  </defs>
</svg>
