<svg xmlns="http://www.w3.org/2000/svg" viewBox="0 0 24 24" fill="#38bdf8">
  <path d="M12 2C6.48 2 2 6.48 2 12s4.48 10 10 10
           10-4.48 10-10S17.52 2 12 2zm6.93 6h-3.95a15.7 15.7 0 0 0-1.5-3.56
           8.03 8.03 0 0 1 5.45 3.56zM12 4c.83 1.2 1.48 2.55 1.9 4H10.1
           c.42-1.45 1.07-2.8 1.9-4zM4.62 14a7.9 7.9 0 0 1 0-4h4.54
           c-.1.65-.16 1.32-.16 2s.06 1.35.16 2H4.62zm.45 2h3.95
           a15.7 15.7 0 0 0 1.5 3.56A8.03 8.03 0 0 1 5.07 16zM10.1 16h3.8
           c-.42 1.45-1.07 2.8-1.9 4-.83-1.2-1.48-2.55-1.9-4z"></path>
</svg>
